<svg width="90" height="122" viewBox="0 0 90 122" fill="none" xmlns="http://www.w3.org/2000/svg">
<path d="M83.1108 103.759L87.4923 98.7876L81.6943 95.5793" stroke="#62061D" stroke-width="0.916063" stroke-linecap="round"/>
<path d="M35.9833 51.1709C38.5117 49.9574 41.1686 49.1161 43.5314 49.202C45.8555 49.2865 47.891 50.2717 49.1915 52.6152L49.3151 52.8466L49.5226 53.2574C53.8225 61.9609 54.4222 74.6414 51.6858 84.6549L51.6602 84.7473L51.6584 84.748C51.0619 86.9104 50.3095 88.9537 49.3996 90.8082C48.8275 91.9742 47.8735 93.3017 46.8847 94.4771C45.8954 95.653 44.8438 96.7084 44.0595 97.3216C43.8624 97.4757 43.6751 97.6083 43.504 97.7085C43.3414 97.8036 43.1586 97.8908 42.9787 97.9213C42.7927 97.9528 42.4785 97.9333 42.3027 97.634C42.1717 97.4105 42.2051 97.1518 42.2425 96.9825C42.3263 96.6039 42.5781 96.0584 42.9909 95.3368C43.4115 94.6015 44.0238 93.6431 44.8658 92.4253C45.8424 91.0128 48.0671 87.7382 50.8246 84.3237C53.4866 74.4943 52.8699 62.103 48.7026 53.6657L48.5012 53.2661C47.3779 51.0853 45.6076 50.1947 43.4986 50.1179C41.4065 50.0419 38.979 50.7715 36.5645 51.9093C35.9187 54.271 35.096 56.5048 34.139 58.5113C31.2881 64.4886 26.7637 68.5098 20.6282 70.7403C20.2226 70.8877 19.865 70.9818 19.556 71.0179C19.2512 71.0534 18.9563 71.0364 18.7029 70.9238C18.4309 70.8027 18.2473 70.5885 18.1578 70.3218C18.0745 70.0735 18.0791 69.8006 18.121 69.5403C18.2046 69.0213 18.4639 68.3938 18.8097 67.7303C19.1603 67.0574 19.6199 66.3108 20.1317 65.5445C22.173 62.4884 25.1401 58.9961 25.7653 58.355C27.679 56.3928 31.72 53.2169 35.9833 51.1709Z" stroke="#62061D" stroke-width="0.916063" stroke-linecap="round"/>
</svg>
